<svg width="31" height="30" viewBox="0 0 31 30" fill="none" xmlns="http://www.w3.org/2000/svg">
<g clip-path="url(#clip0)">
<rect width="30" height="30" transform="translate(0.232422)" fill="white"/>
<path d="M5.19551 6.90316C10.6411 -0.0407805 19.5393 3.29594 20.9223 6.07153L13.6639 12.8765C13.8151 13.0529 15.4785 14.812 20.9223 20.4373C16.6882 25.2006 10.5896 23.7116 7.38809 21.4958C0.547131 16.3669 3.91814 8.23757 5.19551 6.90316Z" fill="#757575"/>
<path d="M21.0566 8.28659L16.3662 13.1356C17.4791 14.275 20.1024 16.9512 21.6923 18.5411C22.8847 18.5411 24.2361 16.1563 24.554 13.6125C24.872 11.0688 23.2027 9.32006 22.5667 8.28659C22.058 7.45981 21.348 7.94209 21.0566 8.28659Z" fill="#757575"/>
<path d="M22.5254 20.9055V26.1804C22.5254 26.7518 22.9886 27.215 23.56 27.215C24.1314 27.215 24.5946 26.7518 24.5946 26.1804V20.9055C24.5946 20.3341 24.1314 19.8708 23.56 19.8708C22.9886 19.8708 22.5254 20.3341 22.5254 20.9055Z" fill="#757575"/>
<path d="M20.9228 24.5776L26.1977 24.5776C26.7691 24.5776 27.2323 24.1144 27.2323 23.543C27.2323 22.9716 26.7691 22.5084 26.1977 22.5084L20.9228 22.5084C20.3514 22.5084 19.8882 22.9716 19.8882 23.543C19.8882 24.1144 20.3514 24.5776 20.9228 24.5776Z" fill="#757575"/>
</g>
<defs>
<clipPath id="clip0">
<rect width="30" height="30" fill="white" transform="translate(0.232422)"/>
</clipPath>
</defs>
</svg>
