<svg width="30" height="30" viewBox="0 0 30 30" fill="none" xmlns="http://www.w3.org/2000/svg">
<g clip-path="url(#clip0)">
<rect width="30" height="30" transform="translate(-0.000488281)" fill="white"/>
<circle cx="21.6921" cy="22.32" r="1.33274" fill="#757575"/>
<circle cx="25.6667" cy="22.3198" r="1.33274" fill="#757575"/>
<path d="M15.9434 16.9746H6.07947C4.37846 16.9746 2.99951 18.4695 2.99951 20.3136C2.99951 22.1577 4.37846 23.6527 6.07947 23.6527H15.9434C17.6444 23.6527 19.0233 22.1577 19.0233 20.3136C19.0233 18.4695 17.6444 16.9746 15.9434 16.9746Z" fill="#757575"/>
<path d="M17.0385 8.13801C19.4067 5.11817 23.2765 6.56927 23.8779 7.77634L20.7213 10.7357C20.7871 10.8125 21.5105 11.5775 23.8779 14.0238C22.0366 16.0954 19.3844 15.4478 17.992 14.4842C15.017 12.2537 16.483 8.71833 17.0385 8.13801Z" fill="#757575"/>
<path d="M24.3593 9.05913L22.6255 10.8516C23.0369 11.2728 24.0066 12.2621 24.5943 12.8498C25.0351 12.8498 25.5347 11.9683 25.6522 11.0279C25.7698 10.0876 25.1527 9.44117 24.9176 9.05913C24.7295 8.75351 24.4671 8.93179 24.3593 9.05913Z" fill="#757575"/>
<path fill-rule="evenodd" clip-rule="evenodd" d="M14.7369 8.23872C13.8949 7.09159 12.5367 6.34692 11.0047 6.34692C8.44939 6.34692 6.37793 8.41838 6.37793 10.9737C6.37793 13.5289 8.44939 15.6004 11.0047 15.6004C12.6508 15.6004 14.0961 14.7407 14.9162 13.4458C13.5884 11.527 14.2007 9.25633 14.7369 8.23872Z" fill="#757575"/>
</g>
<defs>
<clipPath id="clip0">
<rect width="30" height="30" fill="white" transform="translate(-0.000488281)"/>
</clipPath>
</defs>
</svg>
