<svg width="31" height="30" viewBox="0 0 31 30" fill="none" xmlns="http://www.w3.org/2000/svg">
<g clip-path="url(#clip0)">
<rect width="30" height="30" transform="translate(0.155762)" fill="white"/>
<path d="M3.15576 6.21274C3.15576 4.86137 4.25126 3.76587 5.60264 3.76587H24.7089C26.0603 3.76587 27.1558 4.86137 27.1558 6.21274V6.9141C27.1558 8.26547 26.0603 9.36098 24.7089 9.36098H5.60264C4.25126 9.36098 3.15576 8.26547 3.15576 6.9141V6.21274Z" fill="#757575"/>
<path d="M3.15576 20.3768C3.15576 19.0254 4.25126 17.9299 5.60264 17.9299H14.7729C16.1243 17.9299 17.2198 19.0254 17.2198 20.3768V21.0998C17.2198 22.4512 16.1243 23.5467 14.7729 23.5467H5.60263C4.25126 23.5467 3.15576 22.4512 3.15576 21.0998V20.3768Z" fill="#757575"/>
<path fill-rule="evenodd" clip-rule="evenodd" d="M3.15576 13.3099C3.15576 11.9585 4.25126 10.863 5.60264 10.863H24.7089C26.0603 10.863 27.1558 11.9585 27.1558 13.3099V14.0113C27.1558 14.7687 26.8116 15.4458 26.2711 15.8946C25.8128 15.1489 25.1668 14.3945 24.2898 13.6481C23.7762 14.662 23.4401 15.5963 23.2377 16.4581H22.6883C22.5045 15.6135 22.2022 14.6886 21.7447 13.6723C20.4189 14.4555 19.6042 15.424 19.1593 16.4581H5.60264C4.25126 16.4581 3.15576 15.3626 3.15576 14.0113V13.3099Z" fill="#757575"/>
<path d="M21.1079 26.1682C19.5416 24.7422 17.0788 20.156 21.1026 16.1018C23.7062 20.0091 21.2781 23.2869 21.1079 26.1682Z" fill="#757575"/>
<path d="M24.8147 26.2341C26.381 24.8081 28.8161 20.156 24.7923 16.1018C22.3101 20.5554 24.5864 23.4387 24.8147 26.2341Z" fill="#757575"/>
</g>
<defs>
<clipPath id="clip0">
<rect width="30" height="30" fill="white" transform="translate(0.155762)"/>
</clipPath>
</defs>
</svg>
