<svg xmlns="http://www.w3.org/2000/svg" width="30.5" height="20.526" viewBox="0 0 30.5 20.526">
  <g id="Group_684" data-name="Group 684" transform="translate(-16 -443)">
    <g id="Path_570" data-name="Path 570" transform="translate(16 443)" fill="none">
      <path d="M2.8,0H22.386a2.8,2.8,0,0,1,2.8,2.8v9.094a2.8,2.8,0,0,1-2.8,2.8H2.8a2.8,2.8,0,0,1-2.8-2.8V2.8A2.8,2.8,0,0,1,2.8,0Z" stroke="none"/>
      <path d="M 2.79823112487793 2.400002479553223 C 2.578651428222656 2.400002479553223 2.400001525878906 2.578652381896973 2.400001525878906 2.798233032226563 L 2.400001525878906 11.8924732208252 C 2.400001525878906 12.11205291748047 2.578651428222656 12.29070281982422 2.79823112487793 12.29070281982422 L 22.38583183288574 12.29070281982422 C 22.60541152954102 12.29070281982422 22.78406143188477 12.11205291748047 22.78406143188477 11.8924732208252 L 22.78406143188477 2.798233032226563 C 22.78406143188477 2.578652381896973 22.60541152954102 2.400002479553223 22.38583183288574 2.400002479553223 L 2.79823112487793 2.400002479553223 M 2.79823112487793 2.86102294921875e-06 L 22.38583183288574 2.86102294921875e-06 C 23.93125152587891 2.86102294921875e-06 25.18406105041504 1.252812385559082 25.18406105041504 2.798233032226563 L 25.18406105041504 11.8924732208252 C 25.18406105041504 13.43789291381836 23.93125152587891 14.69070243835449 22.38583183288574 14.69070243835449 L 2.79823112487793 14.69070243835449 C 1.252811431884766 14.69070243835449 1.9073486328125e-06 13.43789291381836 1.9073486328125e-06 11.8924732208252 L 1.9073486328125e-06 2.798233032226563 C 1.9073486328125e-06 1.252812385559082 1.252811431884766 2.86102294921875e-06 2.79823112487793 2.86102294921875e-06 Z" stroke="none" fill="#b3d4d3"/>
    </g>
    <path id="Path_571" data-name="Path 571" d="M2.8,0H21.686a2.8,2.8,0,0,1,2.8,2.8v9.094a2.8,2.8,0,0,1-2.8,2.8H2.8a2.8,2.8,0,0,1-2.8-2.8V2.8A2.8,2.8,0,0,1,2.8,0Z" transform="translate(21.335 448.335)" fill="#064e4a"/>
    <g id="money_5_" data-name="money (5)" transform="translate(21.335 448.015)">
      <g id="Group_683" data-name="Group 683" transform="translate(0 0)">
        <g id="Group_680" data-name="Group 680">
          <g id="Group_679" data-name="Group 679">
            <path id="Path_568" data-name="Path 568" d="M22.555,146.5H2.115A2.119,2.119,0,0,0,0,148.615V159.4a2.115,2.115,0,0,0,2.115,2.115H22.55a2.115,2.115,0,0,0,2.115-2.115V148.615A2.111,2.111,0,0,0,22.555,146.5ZM1.022,148.635a1.126,1.126,0,0,1,1.113-1.113H4.75v.531a3.08,3.08,0,0,1-3.049,3.1H1.022Zm3.729,11.39v.47H2.135a1.1,1.1,0,0,1-1.113-1.073v-2.452H1.7a3.046,3.046,0,0,1,3.049,3.044Zm18.949-.6a1.1,1.1,0,0,1-1.113,1.073H19.971v-.465a3.047,3.047,0,0,1,3.039-3.059h.69Zm0-3.473H23.02a4.072,4.072,0,0,0-4.071,4.071v.475H5.772v-.465a4.072,4.072,0,0,0-4.061-4.081h-.69v-3.78H1.7a4.1,4.1,0,0,0,4.071-4.117v-.531H18.949v.506a4.083,4.083,0,0,0,4.071,4.091H23.7Zm0-4.852H23.02a3.054,3.054,0,0,1-3.049-3.065v-.511h2.615a1.126,1.126,0,0,1,1.113,1.113Z" transform="translate(0 -146.5)" fill="#b3d4d3" stroke="#b3d4d3" stroke-width="1"/>
          </g>
        </g>
        <g id="Group_682" data-name="Group 682" transform="translate(8.04 3.209)">
          <g id="Group_681" data-name="Group 681" transform="translate(0 0)">
            <path id="Path_569" data-name="Path 569" d="M135.02,182.6a4.32,4.32,0,1,0,4.32,4.32A4.319,4.319,0,0,0,135.02,182.6Zm0,7.864a3.544,3.544,0,1,1,3.544-3.544A3.545,3.545,0,0,1,135.02,190.464Z" transform="translate(-130.7 -182.6)" fill="#b3d4d3" stroke="#b3d4d3" stroke-width="1"/>
          </g>
        </g>
      </g>
    </g>
  </g>
</svg>
