<svg xmlns="http://www.w3.org/2000/svg" width="28.6" height="28.6" viewBox="0 0 28.6 28.6">
  <g id="umbrella" transform="translate(0.3 0.3)">
    <path id="Path_566" data-name="Path 566" d="M14.875,1.339V.875a.875.875,0,0,0-1.75,0v.464C6.067,1.752,0,7.2,0,14.437a.875.875,0,0,0,1.237.8,6.174,6.174,0,0,1,6.851.657.868.868,0,0,0,1.2.109c.071-.057.082-.086.27-.232a6.973,6.973,0,0,1,3.563-1.289V24.938a3.063,3.063,0,1,0,6.125,0,.875.875,0,1,0-1.75,0,1.312,1.312,0,1,1-2.625,0V14.479a6.95,6.95,0,0,1,3.583,1.305c.169.133.175.154.24.209a.867.867,0,0,0,1.213-.1,6.175,6.175,0,0,1,6.852-.658.875.875,0,0,0,1.237-.8c0-7.24-6.068-12.686-13.125-13.1ZM9.66,13.662C9.87,8.809,11,6.2,11.957,4.844A4.515,4.515,0,0,1,14,3.1a4.433,4.433,0,0,1,1.924,1.586c1.012,1.349,2.2,3.98,2.415,8.981a10.129,10.129,0,0,0-8.681,0Zm-7.831-.516a11.7,11.7,0,0,1,8.983-9.692c-2.132,2.692-2.766,6.787-2.9,10.218A7.956,7.956,0,0,0,1.828,13.146Zm18.264.525c-.138-3.432-.773-7.526-2.9-10.218a11.7,11.7,0,0,1,8.983,9.692A7.956,7.956,0,0,0,20.092,13.671Z" fill="#b3d4d3" stroke="#b3d4d3" stroke-width="0.6"/>
  </g>
</svg>
