<svg width="30" height="30" viewBox="0 0 30 30" fill="none" xmlns="http://www.w3.org/2000/svg">
<g clip-path="url(#clip0)">
<rect width="30" height="30" fill="white"/>
<g clip-path="url(#clip1)">
<path d="M21.4381 16.0384L21.5714 15.621H22.0096H22.4767C23.262 15.621 23.902 14.9811 23.902 14.1958V12.8151C23.902 12.0297 23.2621 11.3898 22.4767 11.3898H22.0096H21.5715L21.4381 10.9724C21.2966 10.5297 21.1181 10.0997 20.9043 9.68643L20.7026 9.2967L21.0129 8.9864L21.3439 8.65537L21.3442 8.65514C21.9074 8.09248 21.8937 7.18877 21.3439 6.63962L21.3437 6.63939L20.3677 5.66349L20.3674 5.66319C19.8176 5.11264 18.9139 5.10096 18.352 5.66349L18.3518 5.66374L18.0211 5.99447L17.7108 6.30476L17.321 6.10308C16.9078 5.88922 16.4777 5.71069 16.035 5.56927L15.6176 5.43592V4.99773V4.53062C15.6176 3.74529 14.9777 3.10537 14.1923 3.10537H12.8116C12.0263 3.10537 11.3863 3.74529 11.3863 4.53062V4.99773V5.43588L10.969 5.56926C10.5263 5.71072 10.0962 5.88926 9.68288 6.1031L9.29317 6.30474L8.9829 5.99447L8.65186 5.66343L8.65161 5.66319C8.08901 5.09991 7.18518 5.11372 6.63616 5.66346L6.63587 5.66375L5.66001 6.63957L5.6598 6.63978C5.11003 7.18897 5.09674 8.09261 5.66005 8.65531L5.66028 8.65554L5.99105 8.98631L6.30135 9.29661L6.09966 9.68634C5.88581 10.0996 5.70731 10.5297 5.56584 10.9724L5.43247 11.3897H4.99431H4.52724C3.74188 11.3897 3.10195 12.0297 3.10195 12.815V14.1958C3.10195 14.9811 3.74188 15.621 4.52722 15.621H4.52724H4.99431H5.43248L5.56585 16.0383C5.70731 16.4811 5.8858 16.9111 6.09966 17.3244L6.30135 17.7141L5.99105 18.0244L5.66002 18.3554L5.65979 18.3556C5.09653 18.9183 5.11029 19.822 5.66004 20.3712L5.66026 20.3714L6.63621 21.3472L6.63653 21.3476C7.18626 21.8981 8.09004 21.9098 8.65192 21.3473L8.65217 21.347L8.9829 21.0163L9.29319 20.706L9.68292 20.9077C10.0962 21.1215 10.5263 21.3001 10.9689 21.4415L11.3863 21.5748V22.013V22.4801C11.3863 23.2655 12.0262 23.9054 12.8116 23.9054H14.1923C14.9777 23.9054 15.6176 23.2655 15.6176 22.4801V22.013V21.5749L16.0349 21.4415C16.4776 21.3 16.9077 21.1215 17.321 20.9076L17.7107 20.706L18.021 21.0163L18.352 21.3473L18.3523 21.3476C18.9149 21.9108 19.8187 21.897 20.3677 21.3473L20.368 21.347L21.3439 20.3712L21.3441 20.371C21.8939 19.8218 21.9072 18.9181 21.3439 18.3554L21.3436 18.3552L21.0129 18.0244L20.7026 17.7141L20.9042 17.3244C21.1181 16.9112 21.2966 16.4811 21.4381 16.0384ZM8.11523 13.5054C8.11523 10.5346 10.5311 8.11865 13.502 8.11865C16.4728 8.11865 18.8887 10.5346 18.8887 13.5054C18.8887 16.4761 16.4728 18.8921 13.502 18.8921C10.5311 18.8921 8.11523 16.4761 8.11523 13.5054Z" stroke="#757575" stroke-width="1.2"/>
</g>
<circle cx="21.0643" cy="25.0394" r="1.49444" stroke="#757575"/>
<circle cx="26.0042" cy="25.0389" r="1.49444" stroke="#757575"/>
</g>
<defs>
<clipPath id="clip0">
<rect width="30" height="30" fill="white"/>
</clipPath>
<clipPath id="clip1">
<rect width="22" height="22" fill="white" transform="matrix(1 0 0 -1 2.50195 24.5054)"/>
</clipPath>
</defs>
</svg>
