<svg width="30" height="30" viewBox="0 0 30 30" fill="none" xmlns="http://www.w3.org/2000/svg">
<g clip-path="url(#clip0)">
<rect width="30" height="30" fill="white"/>
<path d="M5.44687 21.4376H16.2336C17.2536 21.4376 18.0804 22.2645 18.0804 23.2845V24.0075C18.0804 25.0275 17.2536 25.8543 16.2336 25.8543H5.44687C4.42687 25.8543 3.6 25.0275 3.6 24.0075V23.2845C3.6 22.2645 4.42687 21.4376 5.44687 21.4376Z" stroke="#757575" stroke-width="1.2"/>
<mask id="path-2-inside-1" fill="white">
<path fill-rule="evenodd" clip-rule="evenodd" d="M5.44687 13.771C4.0955 13.771 3 14.8665 3 16.2179V16.9192C3 18.2706 4.0955 19.3661 5.44687 19.3661H19.6431C20.1549 17.7577 21.2557 16.5569 23.036 16.5569C24.3645 16.5569 25.2176 17.6299 25.6521 19.1059C26.4514 18.7033 26.9998 17.8753 26.9998 16.9192V16.2179C26.9998 14.8665 25.9043 13.771 24.5529 13.771H5.44687Z"/>
</mask>
<path d="M19.6431 19.3661V20.5661H20.5206L20.7866 19.7299L19.6431 19.3661ZM25.6521 19.1059L24.5009 19.4447L24.9071 20.8247L26.1918 20.1776L25.6521 19.1059ZM4.2 16.2179C4.2 15.5292 4.75824 14.971 5.44687 14.971V12.571C3.43276 12.571 1.8 14.2038 1.8 16.2179H4.2ZM4.2 16.9192V16.2179H1.8V16.9192H4.2ZM5.44687 18.1661C4.75824 18.1661 4.2 17.6078 4.2 16.9192H1.8C1.8 18.9333 3.43276 20.5661 5.44687 20.5661V18.1661ZM19.6431 18.1661H5.44687V20.5661H19.6431V18.1661ZM20.7866 19.7299C21.2022 18.424 21.9579 17.7569 23.036 17.7569V15.3569C20.5535 15.3569 19.1077 17.0914 18.4996 19.0022L20.7866 19.7299ZM23.036 17.7569C23.5409 17.7569 24.114 18.1304 24.5009 19.4447L26.8032 18.767C26.3212 17.1294 25.1882 15.3569 23.036 15.3569V17.7569ZM25.7998 16.9192C25.7998 17.4046 25.5226 17.8275 25.1123 18.0341L26.1918 20.1776C27.3803 19.5791 28.1998 18.3459 28.1998 16.9192H25.7998ZM25.7998 16.2179V16.9192H28.1998V16.2179H25.7998ZM24.5529 14.971C25.2415 14.971 25.7998 15.5292 25.7998 16.2179H28.1998C28.1998 14.2038 26.567 12.571 24.5529 12.571V14.971ZM5.44687 14.971H24.5529V12.571H5.44687V14.971Z" fill="#757575" mask="url(#path-2-inside-1)"/>
<mask id="path-4-inside-2" fill="white">
<path fill-rule="evenodd" clip-rule="evenodd" d="M24.5531 12.2986C25.9045 12.2986 27 11.2031 27 9.85171V9.1504C27 7.79903 25.9045 6.70353 24.5531 6.70353H17.0497C17.0623 8.53588 15.2121 10.2756 11.1218 9.98954C7.91387 9.7652 6.35864 8.26826 6.23385 6.70353H5.44708C4.09571 6.70353 3.00021 7.79903 3.00021 9.1504V9.85171C3.00021 11.2031 4.09571 12.2986 5.44708 12.2986H24.5531Z"/>
</mask>
<path d="M17.0497 6.70353V5.50353H15.8415L15.8498 6.71174L17.0497 6.70353ZM11.1218 9.98954L11.2056 8.79246L11.2056 8.79246L11.1218 9.98954ZM6.23385 6.70353L7.43006 6.60813L7.34197 5.50353H6.23385V6.70353ZM25.8 9.85171C25.8 10.5403 25.2418 11.0986 24.5531 11.0986V13.4986C26.5672 13.4986 28.2 11.8658 28.2 9.85171H25.8ZM25.8 9.1504V9.85171H28.2V9.1504H25.8ZM24.5531 7.90353C25.2418 7.90353 25.8 8.46177 25.8 9.1504H28.2C28.2 7.13629 26.5672 5.50353 24.5531 5.50353V7.90353ZM17.0497 7.90353H24.5531V5.50353H17.0497V7.90353ZM15.8498 6.71174C15.853 7.18212 15.6318 7.70744 14.9731 8.13303C14.287 8.57632 13.0864 8.924 11.2056 8.79246L11.0381 11.1866C13.2476 11.3411 15.0172 10.962 16.2756 10.1488C17.5615 9.31799 18.259 8.05728 18.2497 6.69531L15.8498 6.71174ZM11.2056 8.79246C8.26737 8.58699 7.48586 7.30786 7.43006 6.60813L5.03765 6.79892C5.23142 9.22867 7.56038 10.9434 11.0381 11.1866L11.2056 8.79246ZM5.44708 7.90353H6.23385V5.50353H5.44708V7.90353ZM4.20021 9.1504C4.20021 8.46177 4.75845 7.90353 5.44708 7.90353V5.50353C3.43297 5.50353 1.80021 7.13628 1.80021 9.1504H4.20021ZM4.20021 9.85171V9.1504H1.80021V9.85171H4.20021ZM5.44708 11.0986C4.75845 11.0986 4.20021 10.5403 4.20021 9.85171H1.80021C1.80021 11.8658 3.43297 13.4986 5.44708 13.4986V11.0986ZM24.5531 11.0986H5.44708V13.4986H24.5531V11.0986Z" fill="#757575" mask="url(#path-4-inside-2)"/>
<path d="M21.6981 25.8949H21.7286V26.0593C21.7286 26.3106 21.8234 26.5572 22.0007 26.7433C22.1541 26.9044 22.3566 26.9668 22.4406 26.9903C22.5502 27.0209 22.6768 27.0415 22.79 27.0415C22.9097 27.0415 23.0345 27.0187 23.1443 26.9831C23.2433 26.9509 23.4075 26.8837 23.5412 26.7433C23.7186 26.5572 23.8134 26.3106 23.8134 26.0593V25.8729C24.2572 25.8063 24.6677 25.591 24.982 25.261C25.3551 24.8692 25.6363 24.2142 25.6363 23.6459C25.6363 23.1442 25.5019 22.5743 25.0886 22.1403C25.0453 22.0949 24.9991 22.0514 24.9503 22.0099C25.0829 21.9589 25.2031 21.8786 25.3018 21.775C25.4791 21.5888 25.5739 21.3422 25.5739 21.0909C25.5739 20.6369 25.4024 20.196 25.0886 19.8664C24.7738 19.5359 24.3404 19.3444 23.882 19.3444H23.8134V19.18C23.8134 18.9287 23.7186 18.6822 23.5412 18.496C23.4075 18.3556 23.2433 18.2884 23.1443 18.2563C23.0345 18.2206 22.9097 18.1979 22.79 18.1979C22.6768 18.1979 22.5502 18.2184 22.4406 18.2491C22.3566 18.2725 22.1541 18.335 22.0007 18.496C21.8234 18.6822 21.7286 18.9287 21.7286 19.18V19.3709C21.2918 19.4385 20.8171 19.6364 20.4915 19.9784C20.1094 20.3796 19.8995 20.9177 19.8995 21.4731C19.8995 22.0285 20.1094 22.5667 20.4915 22.9679C20.5705 23.0509 20.6583 23.1254 20.7523 23.1916C20.5711 23.2344 20.4066 23.3296 20.2782 23.4644C20.1009 23.6506 20.0061 23.8971 20.0061 24.1484C20.0061 24.6024 20.1776 25.0434 20.4915 25.3729C20.8063 25.7035 21.2396 25.8949 21.6981 25.8949Z" stroke="#757575" stroke-width="1.2"/>
<path d="M8.75283 2.93229C10.4859 0.722409 13.3177 1.78431 13.7578 2.66763L10.725 4.90231C10.9071 5.05418 11.1461 5.20862 13.7578 7.23948C12.4104 8.75539 10.4695 8.28152 9.45061 7.57635C7.2735 5.9441 8.34631 3.35697 8.75283 2.93229Z" stroke="#757575"/>
<path d="M13.6121 4.92513L13.9628 4.57141L14.7326 3.79484C14.7993 3.72245 14.9244 3.61641 15.1039 3.57836C15.2134 3.55515 15.3479 3.55739 15.4833 3.61819C15.6162 3.67791 15.7084 3.77543 15.7693 3.87188M13.6121 4.92513L15.7693 3.87188M13.6121 4.92513L13.9645 5.27714C14.1491 5.46159 14.5861 5.89658 14.8521 6.15615L14.9978 6.2983H15.2013C15.4149 6.2983 15.5777 6.19628 15.6771 6.11095C15.7807 6.02208 15.8617 5.91289 15.9236 5.80803C16.0478 5.59754 16.1375 5.33246 16.1719 5.06413C16.2463 4.48364 15.8822 4.01745 15.7891 3.89816C15.779 3.88522 15.7721 3.87636 15.7693 3.87188M13.6121 4.92513L15.7693 3.87188" stroke="#757575"/>
</g>
<defs>
<clipPath id="clip0">
<rect width="30" height="30" fill="white"/>
</clipPath>
</defs>
</svg>
