<svg xmlns="http://www.w3.org/2000/svg" width="28.883" height="28.376" viewBox="0 0 28.883 28.376">
  <g id="diagram" transform="matrix(-0.999, -0.035, 0.035, -0.999, 27.259, 28.112)">
    <g id="Group_494" data-name="Group 494" transform="translate(1.326)">
      <g id="Group_493" data-name="Group 493">
        <path id="Path_417" data-name="Path 417" d="M36.3,3.755a12.819,12.819,0,0,0-21.884,9.064.773.773,0,0,0,.773.773H26.465V24.865a.773.773,0,0,0,.773.773A12.819,12.819,0,0,0,36.3,3.755ZM35.209,20.79a11.189,11.189,0,0,1-7.2,3.275V12.819a.773.773,0,0,0-.773-.773H15.992A11.273,11.273,0,1,1,35.209,20.79Z" transform="translate(-14.419)" fill="#b3d4d3" stroke="#b3d4d3" stroke-width="0.6"/>
      </g>
    </g>
    <g id="Group_496" data-name="Group 496" transform="translate(-0.506 16.351)">
      <g id="Group_495" data-name="Group 495" transform="translate(0)">
        <path id="Path_418" data-name="Path 418" d="M10.933,293.906h-9.7a.773.773,0,0,0-.773.773,10.436,10.436,0,0,0,2.848,7.172.722.722,0,0,0,.126.131,10.443,10.443,0,0,0,7.5,3.172.773.773,0,0,0,.773-.773v-9.7A.773.773,0,0,0,10.933,293.906Zm-8.894,1.546H4.6l-2.152,2.01A8.864,8.864,0,0,1,2.038,295.452ZM3.1,298.967l3.762-3.515H8.95l-4.979,4.81A8.96,8.96,0,0,1,3.1,298.967Zm7.056,4.606a8.863,8.863,0,0,1-2.318-.518l2.318-2.166Zm0-4.8-3.814,3.563a8.976,8.976,0,0,1-1.306-.956l5.12-4.946Z" transform="translate(-0.458 -293.906)" fill="#b3d4d3" stroke="#b3d4d3" stroke-width="0.3"/>
      </g>
    </g>
  </g>
</svg>
