<svg width="31" height="30" viewBox="0 0 31 30" fill="none" xmlns="http://www.w3.org/2000/svg">
<g clip-path="url(#clip0)">
<rect width="30" height="30" transform="translate(0.921387)" fill="white"/>
<g clip-path="url(#clip1)">
<path d="M26.9815 22.0399H26.7648C26.6944 22.2602 26.6056 22.4743 26.4992 22.6799L26.6526 22.8334C27.0248 23.2051 27.0148 23.8009 26.6528 24.1626L26.1999 24.6154C25.8385 24.9773 25.2426 24.9878 24.8708 24.6155L24.7172 24.4619C24.5115 24.5683 24.2975 24.6571 24.0772 24.7275V24.9443C24.0772 25.4625 23.6556 25.884 23.1374 25.884H22.4967C21.9786 25.884 21.557 25.4625 21.557 24.9443V24.7275C21.3367 24.6572 21.1227 24.5683 20.917 24.4619L20.7636 24.6154C20.3925 24.9869 19.7966 24.9782 19.4344 24.6155L18.9815 24.1627C18.6196 23.8011 18.6092 23.2053 18.9814 22.8335L19.135 22.6799C19.0286 22.4742 18.9398 22.2602 18.8694 22.0399H18.6527C18.1345 22.0399 17.7129 21.6184 17.7129 21.1002V20.4595C17.7129 19.9413 18.1345 19.5197 18.6527 19.5197H18.8694C18.9398 19.2994 19.0286 19.0854 19.135 18.8798L18.9815 18.7263C18.6094 18.3545 18.6194 17.7588 18.9814 17.3971L19.4342 16.9443C19.7957 16.5824 20.3916 16.5719 20.7634 16.9442L20.917 17.0978C21.1227 16.9914 21.3367 16.9025 21.557 16.8321V16.6154C21.557 16.0972 21.9786 15.6756 22.4968 15.6756H23.1374C23.6556 15.6756 24.0772 16.0972 24.0772 16.6154V16.8321C24.2975 16.9025 24.5115 16.9914 24.7172 17.0978L24.8706 16.9443C25.2417 16.5728 25.8376 16.5815 26.1998 16.9442L26.6527 17.397C27.0146 17.7585 27.025 18.3543 26.6528 18.7262L26.4992 18.8798C26.6056 19.0854 26.6944 19.2994 26.7648 19.5198H26.9815C27.4997 19.5198 27.9213 19.9413 27.9213 20.4595V21.1002C27.9213 21.6184 27.4997 22.0399 26.9815 22.0399V22.0399ZM22.8171 18.5587C21.5923 18.5587 20.596 19.5551 20.596 20.7798C20.596 22.0046 21.5923 23.001 22.8171 23.001C24.0418 23.001 25.0382 22.0046 25.0382 20.7798C25.0382 19.5551 24.0418 18.5587 22.8171 18.5587Z" fill="#757575"/>
</g>
<path d="M18.503 6.07111C21.0881 2.77466 25.3123 4.35868 25.9688 5.67632L22.5231 8.90679C22.5949 8.99054 23.3845 9.82565 25.9688 12.4961C23.9588 14.7573 21.0637 14.0505 19.5438 12.9986C16.2963 10.5638 17.8966 6.70459 18.503 6.07111Z" fill="#757575"/>
<path d="M26.4942 7.07655L24.6016 9.03324C25.0507 9.49301 26.1092 10.5729 26.7508 11.2145C27.2319 11.2145 27.7772 10.2522 27.9055 9.22569C28.0338 8.19922 27.3602 7.49358 27.1036 7.07655C26.8983 6.74292 26.6118 6.93754 26.4942 7.07655Z" fill="#757575"/>
<path fill-rule="evenodd" clip-rule="evenodd" d="M15.9904 6.18115C15.0713 4.92888 13.5887 4.11597 11.9163 4.11597C9.12692 4.11597 6.86572 6.37717 6.86572 9.1665C6.86572 11.9558 9.12692 14.217 11.9163 14.217C13.7132 14.217 15.291 13.2786 16.1862 11.865C14.7368 9.77053 15.4051 7.29201 15.9904 6.18115Z" fill="#757575"/>
<path fill-rule="evenodd" clip-rule="evenodd" d="M17.0372 17.1687L16.8089 17.397C16.4468 17.7587 16.4368 18.3545 16.809 18.7262L16.9625 18.8797C16.856 19.0853 16.7672 19.2993 16.6968 19.5197H16.4801C15.9619 19.5197 15.5403 19.9412 15.5403 20.4594V21.1001C15.5403 21.6183 15.9619 22.0399 16.4801 22.0398H16.6968C16.7672 22.2602 16.856 22.4742 16.9625 22.6798L16.8089 22.8334C16.4366 23.2053 16.4471 23.8011 16.809 24.1626L17.0373 24.3909C16.5525 24.458 15.8944 24.458 15.0013 24.458H7.31421C5.44041 24.458 3.92139 22.8112 3.92139 20.7798C3.92139 18.7483 5.44041 17.1016 7.31421 17.1016H15.0013C15.8944 17.1016 16.5524 17.1016 17.0372 17.1687Z" fill="#757575"/>
</g>
<defs>
<clipPath id="clip0">
<rect width="30" height="30" fill="white" transform="translate(0.921387)"/>
</clipPath>
<clipPath id="clip1">
<rect width="10.2084" height="10.2084" fill="white" transform="matrix(1 0 0 -1 17.7129 25.884)"/>
</clipPath>
</defs>
</svg>
