<svg width="31" height="30" viewBox="0 0 31 30" fill="none" xmlns="http://www.w3.org/2000/svg">
<g clip-path="url(#clip0)">
<rect width="30" height="30" transform="translate(0.388184)" fill="white"/>
<path d="M19.7084 6.23726C10.3928 3.26705 1.88721 10.1525 1.88721 19.0631C1.88721 20.2782 2.02222 22.5734 2.42724 23.9235C2.42724 24.1935 2.69726 24.4635 2.96728 24.4635H27.674C27.944 24.4635 28.214 24.1935 28.349 23.9235C28.6191 22.5734 28.8891 20.2782 28.8891 19.0631C28.8891 13.2577 25.2438 7.99238 19.7084 6.23726ZM15.3881 8.2624C16.1982 8.2624 16.7382 8.80243 16.7382 9.61249C16.7382 10.4225 16.1982 10.9626 15.3881 10.9626C14.5781 10.9626 14.038 10.4225 14.038 9.61249C14.038 8.80243 14.5781 8.2624 15.3881 8.2624ZM5.93749 20.4132C5.12743 20.4132 4.58739 19.8732 4.58739 19.0631C4.58739 18.2531 5.12743 17.713 5.93749 17.713C6.74754 17.713 7.28758 18.2531 7.28758 19.0631C7.28758 19.8732 6.74754 20.4132 5.93749 20.4132ZM9.71775 13.3928C9.17771 13.9328 8.36765 13.9328 7.82762 13.3928C7.28758 12.8527 7.28758 11.9076 7.69261 11.3676C8.23265 10.8276 9.0427 10.8276 9.58274 11.3676C10.1228 11.9076 10.1228 12.8527 9.71775 13.3928ZM15.3881 21.7633C13.903 21.7633 12.5529 20.4132 12.958 19.0631C13.363 17.7131 15.3881 13.6628 15.3881 13.6628C15.3881 13.6628 17.4133 17.7131 17.8183 19.0631C18.2233 20.4132 16.8732 21.7633 15.3881 21.7633ZM23.0837 13.3928C22.5436 13.9328 21.7336 13.9328 21.1935 13.3928C20.6535 12.8527 20.6535 12.0427 21.1935 11.5026C21.7336 10.9626 22.5436 10.9626 23.0837 11.5026C23.4887 11.9076 23.4887 12.8527 23.0837 13.3928ZM24.8388 20.4132C24.0287 20.4132 23.4887 19.8732 23.4887 19.0631C23.4887 18.2531 24.0287 17.713 24.8388 17.713C25.6488 17.713 26.1889 18.2531 26.1889 19.0631C26.1889 19.8732 25.6488 20.4132 24.8388 20.4132Z" fill="#757575"/>
</g>
<defs>
<clipPath id="clip0">
<rect width="30" height="30" fill="white" transform="translate(0.388184)"/>
</clipPath>
</defs>
</svg>
