<svg width="30" height="30" viewBox="0 0 30 30" fill="none" xmlns="http://www.w3.org/2000/svg">
<g clip-path="url(#clip0)">
<rect width="30" height="30" fill="white"/>
<path d="M5.44687 21.4376H24.5529C25.5729 21.4376 26.3998 22.2645 26.3998 23.2845V24.0075C26.3998 25.0275 25.5729 25.8543 24.5529 25.8543H5.44688C4.42688 25.8543 3.6 25.0275 3.6 24.0075V23.2845C3.6 22.2645 4.42687 21.4376 5.44687 21.4376Z" stroke="#757575" stroke-width="1.2"/>
<path d="M5.44687 14.371H24.5529C25.5729 14.371 26.3998 15.1979 26.3998 16.2179V16.9408C26.3998 17.9608 25.5729 18.7877 24.5529 18.7877H5.44688C4.42688 18.7877 3.6 17.9608 3.6 16.9408V16.2179C3.6 15.1979 4.42687 14.371 5.44687 14.371Z" stroke="#757575" stroke-width="1.2"/>
<path d="M18.7247 7.01675H24.5524C25.5724 7.01675 26.3993 7.84362 26.3993 8.86362V9.58657C26.3993 10.6066 25.5724 11.4334 24.5524 11.4334H18.7247C17.7047 11.4334 16.8778 10.6066 16.8778 9.58657V8.86362C16.8778 7.84362 17.7047 7.01675 18.7247 7.01675Z" stroke="#757575" stroke-width="1.2"/>
<path d="M14.4775 10.821L14.9775 10.821L14.4775 10.821ZM14.1091 11.5494L14.1091 12.0494L14.2737 12.0494L14.4061 11.9516L14.1091 11.5494ZM14.4775 10.2041L13.9775 10.2041L14.4775 10.2041ZM13.3639 9.29919L12.8877 9.4514L12.9988 9.79919L13.3639 9.79919L13.3639 9.29919ZM13.1081 8.68297L12.7546 8.32941L12.496 8.58797L12.6641 8.91274L13.1081 8.68297ZM13.2561 8.53506L12.9027 8.1813L12.9025 8.18151L13.2561 8.53506ZM13.2559 7.25517L12.9024 7.60871L12.9026 7.60896L13.2559 7.25517ZM12.8199 6.81914L12.4662 7.17251L12.4663 7.17269L12.8199 6.81914ZM11.54 6.81926L11.8936 7.17281L11.8938 7.17262L11.54 6.81926ZM11.3922 6.96705L11.1624 7.41111L11.4872 7.57919L11.7458 7.3206L11.3922 6.96705ZM10.776 6.71127L10.276 6.71127L10.276 7.0764L10.6238 7.18754L10.776 6.71127ZM9.8711 5.59766L9.8711 5.09766L9.8711 5.59766ZM9.25417 5.59766L9.25417 6.09766L9.25417 5.59766ZM8.34929 6.50257L8.84929 6.50257L8.84929 6.50256L8.34929 6.50257ZM8.34929 6.71127L8.50147 7.18754L8.84929 7.07641L8.84929 6.71127L8.34929 6.71127ZM7.73306 6.96705L7.37951 7.32061L7.63809 7.57919L7.96286 7.41111L7.73306 6.96705ZM7.58515 6.81914L7.23141 7.17251L7.2316 7.1727L7.58515 6.81914ZM6.30526 6.81926L6.65883 7.1728L6.65901 7.17262L6.30526 6.81926ZM5.86924 7.25532L6.22254 7.60913L6.22281 7.60886L5.86924 7.25532ZM5.86935 8.53519L6.22291 8.18164L6.2227 8.18143L5.86935 8.53519ZM6.01713 8.68297L6.46119 8.91277L6.62926 8.588L6.37068 8.32941L6.01713 8.68297ZM5.76134 9.29919L5.76134 9.79919L6.12649 9.79919L6.23762 9.45136L5.76134 9.29919ZM5.55263 9.29919L5.55263 9.79919L5.55263 9.29919ZM4.64773 10.2041L5.14773 10.2041L4.64773 10.2041ZM4.64773 10.821L4.14773 10.821L4.64773 10.821ZM5.0162 11.5494L4.71918 11.9516L4.8516 12.0494L5.0162 12.0494L5.0162 11.5494ZM7.69241 11.5494L7.69241 12.0494L8.54292 12.0494L8.1293 11.3062L7.69241 11.5494ZM11.4329 11.5494L10.996 11.3062L10.5823 12.0494L11.4329 12.0494L11.4329 11.5494ZM13.9775 10.821C13.9775 10.9534 13.9137 11.0721 13.812 11.1472L14.4061 11.9516C14.7512 11.6967 14.9775 11.2853 14.9775 10.821L13.9775 10.821ZM13.9775 10.2041L13.9775 10.821L14.9775 10.821L14.9775 10.2041L13.9775 10.2041ZM13.5726 9.79919C13.7954 9.79919 13.9775 9.98128 13.9775 10.2041L14.9775 10.2041C14.9775 9.42903 14.3478 8.79919 13.5726 8.79919L13.5726 9.79919ZM13.3639 9.79919L13.5726 9.79919L13.5726 8.79919L13.3639 8.79919L13.3639 9.79919ZM12.6641 8.91274C12.7536 9.08586 12.8284 9.26601 12.8877 9.4514L13.8402 9.14699C13.7639 8.90812 13.6675 8.67607 13.5522 8.4532L12.6641 8.91274ZM12.9025 8.18151L12.7546 8.32941L13.4617 9.03652L13.6096 8.88861L12.9025 8.18151ZM12.9026 7.60896C13.0592 7.76537 13.062 8.02221 12.9027 8.1813L13.6094 8.88882C14.1671 8.3318 14.1496 7.44108 13.6092 6.90138L12.9026 7.60896ZM12.4663 7.17269L12.9024 7.60871L13.6095 6.90162L13.1735 6.4656L12.4663 7.17269ZM11.8938 7.17262C12.053 7.0132 12.3098 7.01596 12.4662 7.17251L13.1736 6.46578C12.6335 5.92506 11.7429 5.90863 11.1863 6.4659L11.8938 7.17262ZM11.7458 7.3206L11.8936 7.17281L11.1865 6.46571L11.0387 6.6135L11.7458 7.3206ZM10.6238 7.18754C10.8092 7.24679 10.9893 7.32154 11.1624 7.41111L11.622 6.52299C11.3991 6.40763 11.1671 6.31133 10.9282 6.23499L10.6238 7.18754ZM10.276 6.50257L10.276 6.71127L11.276 6.71127L11.276 6.50257L10.276 6.50257ZM9.8711 6.09766C10.0939 6.09766 10.276 6.27974 10.276 6.50257L11.276 6.50257C11.276 5.72749 10.6462 5.09766 9.8711 5.09766L9.8711 6.09766ZM9.25417 6.09766L9.8711 6.09766L9.8711 5.09766L9.25417 5.09766L9.25417 6.09766ZM8.84929 6.50256C8.84928 6.27974 9.03136 6.09766 9.25417 6.09766L9.25417 5.09766C8.47906 5.09766 7.84926 5.72749 7.84929 6.50259L8.84929 6.50256ZM8.84929 6.71127L8.84929 6.50257L7.84929 6.50257L7.84929 6.71127L8.84929 6.71127ZM7.96286 7.41111C8.13596 7.32154 8.31605 7.24679 8.50147 7.18754L8.19711 6.23499C7.95819 6.31133 7.72616 6.40764 7.50326 6.52299L7.96286 7.41111ZM7.2316 7.1727L7.37951 7.32061L8.08662 6.6135L7.93871 6.46559L7.2316 7.1727ZM6.65901 7.17262C6.81549 7.01596 7.07229 7.01322 7.23141 7.17251L7.9389 6.46578C7.38186 5.90815 6.49126 5.92556 5.95151 6.4659L6.65901 7.17262ZM6.22281 7.60886L6.65883 7.1728L5.95169 6.46572L5.51567 6.90178L6.22281 7.60886ZM6.2227 8.18143C6.06342 8.02234 6.06591 7.76553 6.22254 7.60913L5.51594 6.90152C4.97404 7.44264 4.95975 8.33335 5.51601 8.88896L6.2227 8.18143ZM6.37068 8.32941L6.22291 8.18164L5.5158 8.88875L5.66357 9.03652L6.37068 8.32941ZM6.23762 9.45136C6.29684 9.266 6.37161 9.08587 6.46119 8.91277L5.57307 8.45316C5.45772 8.67606 5.36138 8.90813 5.28506 9.14703L6.23762 9.45136ZM5.55263 9.79919L5.76134 9.79919L5.76134 8.79919L5.55263 8.79919L5.55263 9.79919ZM5.14773 10.2041C5.14773 9.98128 5.32981 9.79919 5.55263 9.79919L5.55263 8.79919C4.77753 8.79919 4.14773 9.42899 4.14773 10.2041L5.14773 10.2041ZM5.14773 10.821L5.14773 10.2041L4.14773 10.2041L4.14773 10.821L5.14773 10.821ZM5.31323 11.1472C5.21159 11.0721 5.14773 10.9534 5.14773 10.821L4.14773 10.821C4.14773 11.2853 4.37411 11.6968 4.71918 11.9516L5.31323 11.1472ZM5.0162 12.0494L7.69241 12.0494L7.69241 11.0494L5.0162 11.0494L5.0162 12.0494ZM6.92388 10.5126C6.92388 10.976 7.04427 11.413 7.25552 11.7925L8.1293 11.3062C7.99849 11.0712 7.92388 10.801 7.92388 10.5126L6.92388 10.5126ZM9.56263 7.87381C8.10719 7.87381 6.92388 9.05709 6.92388 10.5126L7.92388 10.5126C7.92388 9.60938 8.65947 8.87381 9.56263 8.87381L9.56263 7.87381ZM12.2014 10.5126C12.2014 9.05709 11.0181 7.87381 9.56263 7.87381L9.56263 8.87381C10.4658 8.87381 11.2014 9.60938 11.2014 10.5126L12.2014 10.5126ZM11.8698 11.7925C12.081 11.413 12.2014 10.976 12.2014 10.5126L11.2014 10.5126C11.2014 10.801 11.1268 11.0712 10.996 11.3062L11.8698 11.7925ZM11.4329 12.0494L14.1091 12.0494L14.1091 11.0494L11.4329 11.0494L11.4329 12.0494Z" fill="#757575"/>
</g>
<defs>
<clipPath id="clip0">
<rect width="30" height="30" fill="white"/>
</clipPath>
</defs>
</svg>
