<svg xmlns="http://www.w3.org/2000/svg" width="16" height="15.58" viewBox="0 0 16 15.58">
  <g id="Group_820" data-name="Group 820" transform="translate(-1231.455 -89.679)">
    <path id="Path_642" data-name="Path 642" d="M4.682,5.869c4.021-5.2,10.592-2.7,11.613-.623l-5.36,5.1c.112.132,1.34,1.45,5.36,5.663-3.127,3.568-7.63,2.452-9.994.793C1.249,12.958,3.739,6.869,4.682,5.869Z" transform="translate(1228.223 86.895)" fill="#757575"/>
    <path id="Path_643" data-name="Path 643" d="M20.119,8.15l-3.752,3.4c.89.8,2.989,2.675,4.261,3.789.954,0,2.035-1.672,2.289-3.455s-1.081-3.009-1.59-3.733A.742.742,0,0,0,20.119,8.15Z" transform="translate(1224.507 85.886)" fill="#757575"/>
  </g>
</svg>
