<svg width="31" height="30" viewBox="0 0 31 30" fill="none" xmlns="http://www.w3.org/2000/svg">
<g clip-path="url(#clip0)">
<rect width="30" height="30" transform="translate(0.310547)" fill="white"/>
<g clip-path="url(#clip1)">
<path d="M22.7872 16.221H22.3201C22.1684 16.6958 21.977 17.157 21.7477 17.6002L22.0784 17.9309C22.8805 18.7321 22.859 20.016 22.0787 20.7954L21.1028 21.7713C20.3239 22.5513 19.0397 22.5739 18.2383 21.7716L17.9073 21.4405C17.4642 21.6698 17.0029 21.8613 16.5281 22.013V22.4801C16.5281 23.5968 15.6196 24.5054 14.5028 24.5054H13.1221C12.0054 24.5054 11.0969 23.5968 11.0969 22.4801V22.013C10.6221 21.8613 10.1608 21.6699 9.71771 21.4405L9.38698 21.7713C8.5872 22.572 7.30308 22.5532 6.52251 21.7715L5.54656 20.7957C4.76659 20.0166 4.74403 18.7326 5.5463 17.9312L5.87733 17.6001C5.64801 17.157 5.45658 16.6958 5.30486 16.221H4.83779C3.72107 16.221 2.8125 15.3125 2.8125 14.1958V12.815C2.8125 11.6983 3.72107 10.7897 4.83779 10.7897H5.30486C5.45658 10.3149 5.64801 9.85371 5.87733 9.41058L5.54656 9.0798C4.74455 8.27865 4.76603 6.99475 5.5463 6.21529L6.52216 5.23947C7.30114 4.45946 8.58531 4.43686 9.38668 5.23917L9.71771 5.5702C10.1608 5.34092 10.6221 5.14945 11.0969 4.99773V4.53062C11.0969 3.4139 12.0054 2.50537 13.1222 2.50537H14.5029C15.6196 2.50537 16.5282 3.4139 16.5282 4.53062V4.99773C17.0029 5.14941 17.4642 5.34088 17.9073 5.5702L18.2381 5.23947C19.0378 4.43875 20.3219 4.45753 21.1025 5.23921L22.0785 6.21512C22.8585 6.99423 22.881 8.27822 22.0787 9.07963L21.7477 9.41066C21.977 9.8538 22.1685 10.315 22.3202 10.7898H22.7873C23.904 10.7898 24.8125 11.6984 24.8125 12.8151V14.1958C24.8125 15.3125 23.9039 16.221 22.7872 16.221V16.221ZM13.8125 8.71865C11.1731 8.71865 9.02578 10.866 9.02578 13.5054C9.02578 16.1448 11.1731 18.2921 13.8125 18.2921C16.4519 18.2921 18.5992 16.1448 18.5992 13.5054C18.5992 10.866 16.4519 8.71865 13.8125 8.71865Z" fill="#757575"/>
</g>
<circle cx="22.3294" cy="26.0003" r="1.49444" fill="#757575"/>
<circle cx="26.3148" cy="25.9998" r="1.49444" fill="#757575"/>
</g>
<defs>
<clipPath id="clip0">
<rect width="30" height="30" fill="white" transform="translate(0.310547)"/>
</clipPath>
<clipPath id="clip1">
<rect width="22" height="22" fill="white" transform="matrix(1 0 0 -1 2.8125 24.5054)"/>
</clipPath>
</defs>
</svg>
