<svg width="31" height="30" viewBox="0 0 31 30" fill="none" xmlns="http://www.w3.org/2000/svg">
<g clip-path="url(#clip0)">
<rect width="30" height="30" transform="translate(0.844238)" fill="white"/>
<path fill-rule="evenodd" clip-rule="evenodd" d="M27.4587 20.7801L27.4587 20.7801C26.6204 21.7777 25.8677 22.6733 23.9004 22.6733C22.1389 22.6733 21.4002 22.0078 20.4188 21.1237C20.1405 20.873 19.8427 20.6047 19.4966 20.329C21.5994 18.3969 23.0499 17.9846 23.9004 17.9846C25.8563 17.9846 26.5588 18.8148 27.4747 19.8972C27.5932 20.0373 27.7154 20.1817 27.8443 20.329C27.711 20.4799 27.5839 20.6311 27.4587 20.7801ZM25.5777 20.3087C25.5777 21.28 24.7903 22.0674 23.8191 22.0674C22.8478 22.0674 22.0604 21.28 22.0604 20.3087C22.0604 19.3374 22.8478 18.5501 23.8191 18.5501C24.7903 18.5501 25.5777 19.3374 25.5777 20.3087ZM23.8324 21.1873C24.3067 21.1873 24.6912 20.8028 24.6912 20.3285C24.6912 19.8542 24.3067 19.4697 23.8324 19.4697C23.3581 19.4697 22.9737 19.8542 22.9737 20.3285C22.9737 20.8028 23.3581 21.1873 23.8324 21.1873Z" fill="#757575"/>
<path d="M16.9861 7.07266C19.316 4.10167 23.1232 5.52929 23.7149 6.71684L20.6093 9.62836C20.674 9.70384 21.3857 10.4565 23.7149 12.8633C21.9033 14.9013 19.294 14.2642 17.9242 13.3162C14.9973 11.1218 16.4396 7.64359 16.9861 7.07266Z" fill="#757575"/>
<path d="M24.1887 7.97877L22.4829 9.74227C22.8877 10.1566 23.8417 11.1299 24.4199 11.7082C24.8536 11.7082 25.345 10.8408 25.4607 9.91572C25.5763 8.9906 24.9692 8.35462 24.7379 7.97877C24.5529 7.67808 24.2947 7.85348 24.1887 7.97877Z" fill="#757575"/>
<path fill-rule="evenodd" clip-rule="evenodd" d="M14.7218 7.17169C13.8934 6.04314 12.5572 5.31055 11.0499 5.31055C8.53599 5.31055 6.49805 7.34849 6.49805 9.86243C6.49805 12.3764 8.53599 14.4143 11.0499 14.4143C12.6694 14.4143 14.0914 13.5686 14.8982 12.2946C13.5917 10.4068 14.1942 8.17283 14.7218 7.17169Z" fill="#757575"/>
<path fill-rule="evenodd" clip-rule="evenodd" d="M21.0316 16.2958C20.8853 16.0975 20.6501 15.9688 20.3853 15.9688H19.8381C19.3954 15.9688 19.0353 16.3289 19.0353 16.7715V16.9567C18.8471 17.0168 18.6642 17.0927 18.4886 17.1836L18.3574 17.0524C18.0397 16.7344 17.5307 16.7433 17.2219 17.0525L16.8351 17.4393C16.5258 17.7483 16.5173 18.2572 16.8352 18.5748L16.9663 18.7059C16.8754 18.8815 16.7995 19.0643 16.7394 19.2525H16.5543C16.1116 19.2525 15.7515 19.6127 15.7515 20.0553V20.6026C15.7515 21.0453 16.1116 21.4054 16.5543 21.4054H16.7394C16.7995 21.5936 16.8754 21.7764 16.9663 21.9521L16.8351 22.0833C16.5171 22.401 16.526 22.9099 16.8352 23.2187L17.2221 23.6056C17.5315 23.9154 18.0405 23.9228 18.3575 23.6055L18.4886 23.4744C18.6642 23.5653 18.8471 23.6412 19.0353 23.7013V23.8864C19.0353 24.3291 19.3954 24.6892 19.838 24.6892H20.3853C20.6501 24.6892 20.8853 24.5604 21.0316 24.3622V21.9881C20.759 22.1398 20.4452 22.2264 20.1117 22.2264C19.0655 22.2264 18.2143 21.3752 18.2143 20.329C18.2143 19.2828 19.0655 18.4316 20.1117 18.4316C20.4452 18.4316 20.759 18.5181 21.0316 18.6699V16.2958Z" fill="#757575"/>
<path fill-rule="evenodd" clip-rule="evenodd" d="M15.3099 17.0396C14.9206 17.0139 14.4353 17.0139 13.8302 17.0139H6.90208C5.21328 17.0139 3.84424 18.4981 3.84424 20.329C3.84424 22.1598 5.21328 23.644 6.90208 23.644H13.8302C14.4352 23.644 14.9206 23.644 15.3099 23.6183L15.0694 23.3778C14.7432 23.052 14.7337 22.515 15.0693 22.1799L15.2077 22.0415C15.1118 21.8561 15.0317 21.6633 14.9683 21.4647H14.773C14.3059 21.4647 13.926 21.0847 13.926 20.6177V20.0403C13.926 19.5733 14.3059 19.1933 14.773 19.1933H14.9683C15.0317 18.9948 15.1118 18.8019 15.2077 18.6165L15.0694 18.4782C14.734 18.1432 14.7429 17.6062 15.0693 17.2803L15.3099 17.0396ZM16.8812 21.4685C16.6563 21.1449 16.5244 20.7521 16.5244 20.329C16.5244 19.906 16.6563 19.5131 16.8812 19.1895C16.888 19.5174 16.888 19.8947 16.888 20.329C16.888 20.7632 16.888 21.1406 16.8812 21.4685Z" fill="#757575"/>
</g>
<defs>
<clipPath id="clip0">
<rect width="30" height="30" fill="white" transform="translate(0.844238)"/>
</clipPath>
</defs>
</svg>
