<svg width="31" height="30" viewBox="0 0 31 30" fill="none" xmlns="http://www.w3.org/2000/svg">
<g clip-path="url(#clip0)">
<rect width="30" height="30" transform="translate(0.76709)" fill="white"/>
<path d="M3.76709 22.4127C3.76709 21.0613 4.86259 19.9658 6.21396 19.9658H17.0007C18.352 19.9658 19.4475 21.0613 19.4475 22.4127V23.1356C19.4475 24.487 18.352 25.5825 17.0007 25.5825H6.21396C4.86259 25.5825 3.76709 24.487 3.76709 23.1356V22.4127Z" fill="#757575"/>
<path fill-rule="evenodd" clip-rule="evenodd" d="M6.21396 12.8992C4.86259 12.8992 3.76709 13.9947 3.76709 15.346V16.0474C3.76709 17.3987 4.86259 18.4942 6.21396 18.4942H20.4102C20.922 16.8859 22.0228 15.6851 23.8031 15.6851C25.1316 15.6851 25.9847 16.7581 26.4192 18.2341C27.2185 17.8315 27.7669 17.0034 27.7669 16.0474V15.346C27.7669 13.9947 26.6714 12.8992 25.32 12.8992H6.21396Z" fill="#757575"/>
<path fill-rule="evenodd" clip-rule="evenodd" d="M25.3202 11.4268C26.6716 11.4268 27.7671 10.3313 27.7671 8.97988V8.27857C27.7671 6.9272 26.6716 5.8317 25.3202 5.8317H17.7846C18.0875 8.03109 16.2778 10.2927 11.889 9.94998C8.40694 9.67805 6.87211 7.73176 7.00024 5.8317H6.21417C4.8628 5.8317 3.7673 6.9272 3.7673 8.27857V8.97988C3.7673 10.3313 4.8628 11.4268 6.21417 11.4268H25.3202Z" fill="#757575"/>
<path fill-rule="evenodd" clip-rule="evenodd" d="M17.0031 5.83167C16.8596 5.994 16.7229 6.15673 16.5882 6.31701C15.6862 7.39039 14.8763 8.35412 12.7595 8.35412C10.8641 8.35412 10.0692 7.63805 9.0133 6.68673L9.0133 6.68672C8.71387 6.41697 8.39346 6.1283 8.021 5.83167C10.2836 3.75269 11.8444 3.30903 12.7595 3.30908C14.864 3.30908 15.6199 4.20236 16.6054 5.36702L16.6054 5.36704C16.733 5.51782 16.8644 5.67315 17.0031 5.83167ZM14.5642 5.80975C14.5642 6.85483 13.717 7.70204 12.6719 7.70204C11.6268 7.70204 10.7796 6.85483 10.7796 5.80975C10.7796 4.76466 11.6268 3.91745 12.6719 3.91745C13.717 3.91745 14.5642 4.76466 14.5642 5.80975ZM12.6863 6.75509C13.1966 6.75509 13.6103 6.34138 13.6103 5.83105C13.6103 5.32072 13.1966 4.90701 12.6863 4.90701C12.176 4.90701 11.7623 5.32072 11.7623 5.83105C11.7623 6.34138 12.176 6.75509 12.6863 6.75509Z" fill="#757575"/>
<path d="M24.5051 21.0415H24.1111V19.4858H24.9758C25.1007 19.4858 25.2204 19.5379 25.3087 19.6306C25.397 19.7233 25.4466 19.849 25.4466 19.9801C25.4466 20.0894 25.4865 20.1749 25.5637 20.2246C25.7761 20.2908 25.7925 20.2648 25.9173 20.2648C26.0422 20.2648 26.1619 20.2127 26.2502 20.12C26.3385 20.0273 26.3881 19.9016 26.3881 19.7705C26.3881 19.3772 26.2393 19 25.9745 18.7219C25.7096 18.4438 25.3504 18.2876 24.9758 18.2876H24.1111V17.299C24.1111 17.1679 24.0615 17.0422 23.9732 16.9495C23.8849 16.8568 23.6884 16.8047 23.5635 16.8047C23.4387 16.8047 23.1929 16.8568 23.1046 16.9495C23.0164 17.0422 22.9668 17.1679 22.9668 17.299V18.2876H22.622C22.1226 18.2876 21.5058 18.4959 21.1526 18.8667C20.7995 19.2375 20.6011 19.7404 20.6011 20.2648C20.6011 20.7892 20.7995 21.2921 21.1526 21.6629C21.5058 22.0337 22.1226 22.242 22.622 22.242H22.9668V23.8661H22.1512C22.0264 23.8661 21.9067 23.814 21.8184 23.7213C21.7301 23.6286 21.8037 23.6951 21.6823 23.5406C21.6823 23.5406 21.6309 23.4681 21.5426 23.3754C21.4543 23.2827 21.3346 23.2306 21.2097 23.2306C21.0849 23.2306 20.9651 23.2827 20.8768 23.3754C20.7886 23.4681 20.739 23.5938 20.739 23.7249C20.739 24.1182 20.8878 24.4954 21.1526 24.7735C21.4175 25.0516 21.7767 25.2078 22.1512 25.2078H22.9668V26.1964C22.9668 26.3275 23.0164 26.4532 23.1046 26.5459C23.1929 26.6386 23.4387 26.6907 23.5635 26.6907C23.6884 26.6907 23.8849 26.6386 23.9732 26.5459C24.0615 26.4532 24.1111 26.3275 24.1111 26.1964V25.2078H24.5051C25.0045 25.2078 25.4834 24.9995 25.8366 24.6287C26.1897 24.2579 26.4688 23.5994 26.4688 23.075C26.4688 22.5506 26.3276 22.0337 25.9745 21.6629C25.6213 21.2921 25.0045 21.0415 24.5051 21.0415ZM22.9668 21.0415H22.622C22.3723 21.0415 22.0951 20.9739 21.9388 20.7436C21.8864 20.6664 21.8389 20.5215 21.8389 20.2154C21.8729 19.9307 21.8502 19.9801 21.9562 19.7754C22.1507 19.5238 22.3723 19.4858 22.622 19.4858H22.9668V21.0415ZM24.5051 23.8661H24.1111V22.242H24.5051C24.7548 22.242 24.9942 22.3461 25.1708 22.5315C25.2872 22.6538 25.3289 22.7473 25.3289 22.8069C25.3289 23.0691 25.3474 23.3912 25.1708 23.5766C24.9942 23.762 24.7548 23.8661 24.5051 23.8661Z" fill="#757575"/>
</g>
<defs>
<clipPath id="clip0">
<rect width="30" height="30" fill="white" transform="translate(0.76709)"/>
</clipPath>
</defs>
</svg>
