<svg width="31" height="30" viewBox="0 0 31 30" fill="none" xmlns="http://www.w3.org/2000/svg">
<g clip-path="url(#clip0)">
<rect width="30" height="30" transform="translate(0.0776367)" fill="white"/>
<path d="M2.7627 5.44687C2.7627 4.0955 3.8582 3 5.20957 3H24.7966C26.148 3 27.2435 4.0955 27.2435 5.44687V5.86551C27.2435 7.21688 26.148 8.31238 24.7966 8.31238H5.20957C3.8582 8.31238 2.7627 7.21688 2.7627 5.86551V5.44687Z" fill="#757575"/>
<path d="M2.7627 19.1954C2.7627 17.844 3.8582 16.7485 5.20957 16.7485H11.9148C13.2662 16.7485 14.3617 17.844 14.3617 19.1954V19.7826C14.3617 21.134 13.2662 22.2295 11.9148 22.2295H5.20957C3.85819 22.2295 2.7627 21.134 2.7627 19.7826V19.1954Z" fill="#757575"/>
<path fill-rule="evenodd" clip-rule="evenodd" d="M5.20957 9.96143C3.8582 9.96143 2.7627 11.0569 2.7627 12.4083V13.2565C2.7627 14.6079 3.8582 15.7034 5.20957 15.7034H16.272C16.8104 14.1306 18.1653 12.8162 20.1509 12.8163C22.1083 12.8164 23.3459 14.1308 23.7703 15.7034H24.9459C26.2973 15.7034 27.3928 14.6079 27.3928 13.2565V12.4083C27.3928 11.0569 26.2973 9.96143 24.9459 9.96143H5.20957Z" fill="#757575"/>
<path d="M17.3647 16.5547L19.7458 17.7173V20.8485L17.3647 19.5922V16.5547Z" fill="#757575"/>
<path d="M20.0198 17.1232L17.8291 15.9468L20.0198 14.8921L22.1697 15.9468L20.0198 17.1232Z" fill="#757575"/>
<path d="M20.4014 17.7175V20.8112L22.7075 19.5551V16.6487L20.4014 17.7175Z" fill="#757575"/>
<path d="M20.4019 22.5142L22.8895 23.7288V27.0002L20.4019 25.6877V22.5142Z" fill="#757575"/>
<path d="M23.176 23.1081L20.8872 21.879L23.176 20.7771L25.4222 21.879L23.176 23.1081Z" fill="#757575"/>
<path d="M23.5747 23.729V26.9612L25.9841 25.6488V22.6123L23.5747 23.729Z" fill="#757575"/>
<path d="M14.4624 22.7539L16.817 23.9035V26.9999L14.4624 25.7576V22.7539Z" fill="#757575"/>
<path d="M17.0877 23.3159L14.9214 22.1526L17.0877 21.1096L19.2137 22.1526L17.0877 23.3159Z" fill="#757575"/>
<path d="M17.4658 23.9036V26.9629L19.7463 25.7207V22.8467L17.4658 23.9036Z" fill="#757575"/>
</g>
<defs>
<clipPath id="clip0">
<rect width="30" height="30" fill="white" transform="translate(0.0776367)"/>
</clipPath>
</defs>
</svg>
