<svg width="31" height="30" viewBox="0 0 31 30" fill="none" xmlns="http://www.w3.org/2000/svg">
<g clip-path="url(#clip0)">
<rect width="30" height="30" transform="translate(0.688965)" fill="white"/>
<path d="M18.27 6.78424C20.8552 3.4878 25.0794 5.07181 25.7359 6.38944L22.2902 9.6199C22.3619 9.70365 23.1516 10.5388 25.7359 13.2092C23.7259 15.4704 20.8307 14.7635 19.3109 13.7117C16.0634 11.2769 17.6636 7.41771 18.27 6.78424Z" fill="#757575"/>
<path d="M26.2618 7.78968L24.3691 9.74636C24.8182 10.2061 25.8768 11.286 26.5183 11.9276C26.9995 11.9276 27.5448 10.9653 27.6731 9.93881C27.8014 8.91235 27.1278 8.20671 26.8712 7.78968C26.6659 7.45606 26.3794 7.65067 26.2618 7.78968Z" fill="#757575"/>
<path fill-rule="evenodd" clip-rule="evenodd" d="M15.7579 6.89425C14.8388 5.64201 13.3562 4.8291 11.6838 4.8291C8.89449 4.8291 6.6333 7.09029 6.6333 9.8796C6.6333 12.6689 8.89449 14.9301 11.6838 14.9301C13.4807 14.9301 15.0585 13.9916 15.9537 12.5781C14.5043 10.4836 15.1726 8.0051 15.7579 6.89425Z" fill="#757575"/>
<path fill-rule="evenodd" clip-rule="evenodd" d="M16.8065 17.8818C16.6905 18.0067 16.5771 18.1395 16.4664 18.2807C15.8647 18.9092 14.3544 22.4866 16.8556 25.0963C16.3662 25.1708 15.6935 25.1708 14.7688 25.1708H7.08177C5.20797 25.1708 3.68896 23.524 3.68896 21.4926C3.68896 19.4612 5.20797 17.8145 7.08177 17.8145H14.7688C15.663 17.8145 16.3215 17.8145 16.8065 17.8818Z" fill="#757575"/>
<path fill-rule="evenodd" clip-rule="evenodd" d="M27.2611 21.9933L27.2611 21.9933C26.3309 23.1002 25.4958 24.0939 23.313 24.0939C21.3585 24.0939 20.5389 23.3555 19.45 22.3746L19.45 22.3745C19.1412 22.0964 18.8108 21.7987 18.4268 21.4928C20.7599 19.349 22.3694 18.8915 23.313 18.8916C25.4831 18.8916 26.2626 19.8127 27.2788 21.0137C27.4103 21.1692 27.5459 21.3294 27.6889 21.4928C27.541 21.6602 27.4 21.828 27.2611 21.9933ZM25.1741 21.4702C25.1741 22.5478 24.3005 23.4215 23.2229 23.4215C22.1452 23.4215 21.2716 22.5478 21.2716 21.4702C21.2716 20.3925 22.1452 19.5189 23.2229 19.5189C24.3005 19.5189 25.1741 20.3925 25.1741 21.4702ZM23.2377 22.445C23.7639 22.445 24.1905 22.0184 24.1905 21.4921C24.1905 20.9659 23.7639 20.5393 23.2377 20.5393C22.7115 20.5393 22.2849 20.9659 22.2849 21.4921C22.2849 22.0184 22.7115 22.445 23.2377 22.445Z" fill="#757575"/>
</g>
<defs>
<clipPath id="clip0">
<rect width="30" height="30" fill="white" transform="translate(0.688965)"/>
</clipPath>
</defs>
</svg>
