<svg width="31" height="30" viewBox="0 0 31 30" fill="none" xmlns="http://www.w3.org/2000/svg">
<g clip-path="url(#clip0)">
<rect width="30" height="30" transform="translate(0.611816)" fill="white"/>
<path d="M8.25342 4C8.25342 3.44771 8.70113 3 9.25342 3H9.85172C10.404 3 10.8517 3.44772 10.8517 4V5.71348H8.25342V4Z" fill="#757575"/>
<path d="M20.2065 4C20.2065 3.44771 20.6543 3 21.2065 3H21.8048C22.3571 3 22.8048 3.44772 22.8048 4V5.71348H20.2065V4Z" fill="#757575"/>
<path fill-rule="evenodd" clip-rule="evenodd" d="M4.73389 6.71338C4.73389 6.1611 5.1816 5.71338 5.73389 5.71338H25.4899C26.0422 5.71338 26.4899 6.16109 26.4899 6.71338V9.91254C26.4899 10.4648 26.0422 10.9125 25.4899 10.9125H5.73389C5.1816 10.9125 4.73389 10.4648 4.73389 9.91254V6.71338ZM8.27882 7.42697C8.27882 7.97925 8.72654 8.42697 9.27882 8.42697H9.87713C10.4294 8.42697 10.8771 7.97925 10.8771 7.42697V5.71348H8.27882V7.42697ZM21.2316 8.42697C20.6794 8.42697 20.2316 7.97925 20.2316 7.42697V5.71348H22.8299V7.42697C22.8299 7.97925 22.3822 8.42697 21.8299 8.42697H21.2316Z" fill="#757575"/>
<path fill-rule="evenodd" clip-rule="evenodd" d="M4.73389 13.3379C4.73389 12.7856 5.1816 12.3379 5.73389 12.3379H25.4899C26.0422 12.3379 26.4899 12.7856 26.4899 13.3379V26C26.4899 26.5523 26.0422 27 25.4899 27H5.73389C5.1816 27 4.73389 26.5523 4.73389 26V13.3379ZM21.5308 18.8128C21.1787 18.8128 20.841 18.9527 20.592 19.2017V20.1406V22.2316H10.6486V20.1406C10.6486 19.7884 10.6486 19.3302 10.5201 19.2017C10.2711 18.9527 9.93341 18.8128 9.58127 18.8128C9.22913 18.8128 8.89142 18.9527 8.64242 19.2017C8.39342 19.4507 8.25354 19.7884 8.25354 20.1406V22.796C8.25354 23.1482 8.39342 23.4859 8.64242 23.7349C8.89142 23.9839 9.22913 24.1238 9.58127 24.1238H21.5308C21.883 24.1238 22.2207 23.9839 22.4697 23.7349C22.7187 23.4859 22.8586 23.1482 22.8586 22.796V20.1406C22.8586 19.7884 22.7187 19.4507 22.4697 19.2017C22.2207 18.9527 21.883 18.8128 21.5308 18.8128ZM12.7799 18.6005L15.0268 20.2231C15.4216 20.5081 15.9642 20.4674 16.3121 20.1267L19.4544 17.0483C19.8675 16.6436 19.8336 15.9688 19.382 15.6075C18.9999 15.3018 18.4493 15.331 18.1017 15.6755L16.4959 17.2669C16.1291 17.6303 15.546 17.6548 15.1501 17.3233L14.3673 16.668C13.9721 16.3371 13.3901 16.3608 13.0231 16.7227L12.6631 17.0778C12.2226 17.5123 12.2783 18.2384 12.7799 18.6005Z" fill="#757575"/>
</g>
<defs>
<clipPath id="clip0">
<rect width="30" height="30" fill="white" transform="translate(0.611816)"/>
</clipPath>
</defs>
</svg>
