<svg width="30" height="30" viewBox="0 0 30 30" fill="none" xmlns="http://www.w3.org/2000/svg">
<g clip-path="url(#clip0)">
<rect width="30" height="30" fill="white"/>
<path d="M15 14.3846L15.5125 14.0728L15 13.2303L14.4874 14.0728L15 14.3846ZM15 14.3846L15.5126 14.0728L15.5127 14.073L15.513 14.0735L15.5142 14.0755L15.5188 14.0831L15.5363 14.112L15.6023 14.2217C15.6592 14.3165 15.7407 14.4532 15.8397 14.6213C16.0376 14.9573 16.306 15.42 16.5875 15.9259C17.137 16.9135 17.7801 18.1417 18.0048 18.8907C18.2858 19.8273 17.939 20.624 17.303 21.1425C16.6982 21.6357 15.8442 21.8793 15 21.8793C14.1557 21.8793 13.3017 21.6357 12.6969 21.1425C12.0609 20.624 11.7141 19.8273 11.9951 18.8907C12.2198 18.1417 12.8629 16.9135 13.4125 15.9259C13.6939 15.42 13.9623 14.9573 14.1602 14.6213C14.2592 14.4532 14.3407 14.3165 14.3976 14.2217L14.4636 14.112L14.4811 14.0831L14.4857 14.0755L14.4869 14.0735L14.4872 14.073L14.4873 14.0728L15 14.3846ZM19.138 6.80891L19.1389 6.8092C24.4108 8.48078 27.9009 13.5041 27.9009 19.0631C27.9009 20.2016 27.6491 22.3801 27.3906 23.7136C27.3591 23.7623 27.3209 23.8071 27.2835 23.8392C27.2698 23.8509 27.2589 23.8586 27.2512 23.8635H2.63906V23.8354L2.61376 23.7511C2.23539 22.4899 2.09902 20.2689 2.09902 19.0631C2.09902 10.543 10.2243 3.96686 19.138 6.80891ZM9.75383 13.817L9.78398 13.7869L9.80956 13.7528C10.1082 13.3546 10.238 12.8407 10.2158 12.3529C10.1935 11.8614 10.0138 11.3383 9.61882 10.9433C8.84447 10.169 7.65451 10.169 6.88016 10.9433L6.85001 10.9735L6.82442 11.0076C6.52584 11.4057 6.39598 11.9196 6.41815 12.4074C6.44049 12.899 6.62023 13.4221 7.01517 13.817C7.78952 14.5914 8.97948 14.5914 9.75383 13.817ZM23.1198 13.817L23.1499 13.7869L23.1755 13.7528C23.4721 13.3573 23.5993 12.8514 23.5993 12.3971C23.5993 11.9544 23.4765 11.4351 23.1198 11.0784C22.3454 10.304 21.1554 10.304 20.3811 11.0784C19.6067 11.8527 19.6067 13.0427 20.3811 13.817C21.1554 14.5914 22.3454 14.5914 23.1198 13.817ZM16.95 9.61249C16.95 9.07111 16.767 8.57334 16.403 8.20941C16.0391 7.84547 15.5413 7.6624 15 7.6624C14.4586 7.6624 13.9608 7.84547 13.5969 8.20941C13.2329 8.57334 13.0499 9.07111 13.0499 9.61249C13.0499 10.1539 13.2329 10.6516 13.5969 11.0156C13.9608 11.3795 14.4586 11.5626 15 11.5626C15.5413 11.5626 16.0391 11.3795 16.403 11.0156C16.767 10.6516 16.95 10.1539 16.95 9.61249ZM3.59921 19.0631C3.59921 19.6045 3.78229 20.1023 4.14622 20.4662C4.51016 20.8302 5.00793 21.0132 5.5493 21.0132C6.09068 21.0132 6.58845 20.8302 6.95238 20.4662C7.31632 20.1023 7.4994 19.6045 7.4994 19.0631C7.4994 18.5218 7.31632 18.024 6.95238 17.6601C6.58845 17.2961 6.09068 17.113 5.5493 17.113C5.00793 17.113 4.51015 17.2961 4.14622 17.6601C3.78229 18.024 3.59921 18.5218 3.59921 19.0631ZM22.5005 19.0631C22.5005 19.6045 22.6836 20.1023 23.0475 20.4662C23.4115 20.8302 23.9092 21.0132 24.4506 21.0132C24.992 21.0132 25.4898 20.8302 25.8537 20.4662C26.2176 20.1023 26.4007 19.6045 26.4007 19.0631C26.4007 18.5218 26.2176 18.024 25.8537 17.6601C25.4898 17.2961 24.992 17.113 24.4506 17.113C23.9092 17.113 23.4115 17.2961 23.0475 17.6601C22.6836 18.024 22.5005 18.5218 22.5005 19.0631Z" stroke="#757575" stroke-width="1.2"/>
</g>
<defs>
<clipPath id="clip0">
<rect width="30" height="30" fill="white"/>
</clipPath>
</defs>
</svg>
