<svg xmlns="http://www.w3.org/2000/svg" width="29" height="25.271" viewBox="0 0 29 25.271">
  <g id="calendar_4_" data-name="calendar (4)" transform="translate(-669.5 -138.444)">
    <g id="Group_690" data-name="Group 690" transform="translate(670 138.944)">
      <path id="Path_575" data-name="Path 575" d="M26.331,35.59H24.62v-.951a.547.547,0,0,0-.547-.547h-3.19a.547.547,0,0,0-.547.547v.951H16.142v-.951a.547.547,0,0,0-.547-.547H12.4a.547.547,0,0,0-.547.547v.951H8.211v-.951a.547.547,0,0,0-.547-.547H4.473a.547.547,0,0,0-.547.547v.951H1.669A1.671,1.671,0,0,0,0,37.259V56.5a1.87,1.87,0,0,0,1.869,1.866h23.9A2.23,2.23,0,0,0,28,56.136V37.259a1.671,1.671,0,0,0-1.669-1.669Zm-4.9-.4h2.1v1.943h-2.1Zm-8.478,0h2.1v1.943h-2.1Zm-7.931,0h2.1v1.943H5.02ZM1.094,37.259a.576.576,0,0,1,.575-.575H3.927v.992a.547.547,0,0,0,.547.547h3.19a.547.547,0,0,0,.547-.547v-.992h3.647v.992a.547.547,0,0,0,.547.547H15.6a.547.547,0,0,0,.547-.547v-.992h4.194v.992a.547.547,0,0,0,.547.547h3.19a.547.547,0,0,0,.547-.547v-.992h1.711a.576.576,0,0,1,.575.575v3.23H1.094ZM26.906,56.136a1.135,1.135,0,0,1-1.134,1.134H1.869a.775.775,0,0,1-.775-.772V41.583H26.906Z" transform="translate(0 -34.092)" fill="#b3d4d3" stroke="#b3d4d3" stroke-width="1"/>
      <path id="Path_576" data-name="Path 576" d="M438.254,283.755h.575a.547.547,0,0,0,0-1.094h-.575a.547.547,0,0,0,0,1.094Z" transform="translate(-413.77 -268.139)" fill="#b3d4d3" stroke="#b3d4d3" stroke-width="1"/>
      <g id="Group_689" data-name="Group 689" transform="translate(9.438 11.001)">
        <path id="Path_577" data-name="Path 577" d="M181.308,221.226l-2.34-.69-1.379-2.012a.547.547,0,0,0-.9,0l-1.379,2.012-2.34.69a.547.547,0,0,0-.279.858l1.488,1.933-.067,2.438a.547.547,0,0,0,.73.53l2.3-.817,2.3.817a.547.547,0,0,0,.73-.53l-.067-2.438,1.488-1.933a.547.547,0,0,0-.279-.858Zm-2.194,2.279a.547.547,0,0,0-.113.349l.05,1.835-1.73-.615a.547.547,0,0,0-.366,0l-1.73.615.05-1.835a.547.547,0,0,0-.113-.349l-1.12-1.455,1.761-.519a.547.547,0,0,0,.3-.215l1.038-1.514,1.038,1.514a.547.547,0,0,0,.3.215l1.761.519Z" transform="translate(-172.576 -218.286)" fill="#b3d4d3" stroke="#b3d4d3" stroke-width="1"/>
        <path id="Path_578" data-name="Path 578" d="M413.793,218.74a.547.547,0,0,0-.773,0l-.407.407a.547.547,0,1,0,.773.773l.407-.407A.547.547,0,0,0,413.793,218.74Z" transform="translate(-399.334 -218.564)" fill="#b3d4d3" stroke="#b3d4d3" stroke-width="1"/>
      </g>
      <path id="Path_579" data-name="Path 579" d="M413.018,340.646a.547.547,0,0,0,.773-.773l-.407-.407a.547.547,0,0,0-.773.773Z" transform="translate(-389.895 -321.686)" fill="#b3d4d3" stroke="#b3d4d3" stroke-width="1"/>
      <path id="Path_580" data-name="Path 580" d="M44.325,283.755H44.9a.547.547,0,1,0,0-1.094h-.575a.547.547,0,1,0,0,1.094Z" transform="translate(-41.384 -268.139)" fill="#b3d4d3" stroke="#b3d4d3" stroke-width="1"/>
      <path id="Path_581" data-name="Path 581" d="M72.678,339.466l-.407.407a.547.547,0,0,0,.773.773l.407-.407a.547.547,0,0,0-.773-.773Z" transform="translate(-68.167 -321.686)" fill="#b3d4d3" stroke="#b3d4d3" stroke-width="1"/>
      <path id="Path_582" data-name="Path 582" d="M72.677,219.92a.547.547,0,1,0,.773-.773l-.407-.407a.547.547,0,1,0-.773.773Z" transform="translate(-68.167 -207.563)" fill="#b3d4d3" stroke="#b3d4d3" stroke-width="1"/>
    </g>
  </g>
</svg>
