<svg xmlns="http://www.w3.org/2000/svg" width="27.089" height="27.076" viewBox="0 0 27.089 27.076">
  <g id="bank-building" transform="translate(0 -0.012)">
    <g id="Layer_1_78_" transform="translate(0 0.012)">
      <g id="Group_694" data-name="Group 694">
        <path id="Path_583" data-name="Path 583" d="M25.846,42.718H1.231a1.231,1.231,0,0,0,0,2.462H25.845a1.231,1.231,0,0,0,0-2.462Z" transform="translate(0 -18.104)" fill="#b2d3d3"/>
        <path id="Path_584" data-name="Path 584" d="M3.9,28.118a1.231,1.231,0,0,0,0,2.463H25.438a1.231,1.231,0,0,0,0-2.463h-.307V17.041h.307a.615.615,0,1,0,0-1.23H3.9a.615.615,0,1,0,0,1.23h.308V28.118H3.9ZM22.669,17.989V28.118H18.977V17.989Zm-6.154,0V28.118H12.822V17.989Zm-9.846,0h3.692V28.118H6.669Z" transform="translate(-1.131 -6.705)" fill="#b2d3d3"/>
        <g id="Path_585" data-name="Path 585" transform="translate(0 -0.012)" fill="none" stroke-linecap="round">
          <path d="M1.231,8.011H25.858a1.231,1.231,0,0,0,.4-2.4L14.044.12a1.233,1.233,0,0,0-1.01,0L.726,5.658a1.231,1.231,0,0,0,.5,2.353Z" stroke="none"/>
          <path d="M 19.93312072753906 5.510839462280273 L 13.53939628601074 2.63381552696228 L 7.14521598815918 5.510839462280273 L 19.93312072753906 5.510839462280273 M 25.85757064819336 8.010839462280273 C 25.85411071777344 8.010839462280273 25.84950065612793 8.010839462280273 25.8454704284668 8.010839462280273 L 1.231051206588745 8.010839462280273 C 0.6506712436676025 8.010839462280273 0.1492612361907959 7.605669498443604 0.02765123918652534 7.038549423217773 C -0.09453876316547394 6.471429347991943 0.1965112388134003 5.896239280700684 0.7261712551116943 5.657639503479004 L 13.03453159332275 0.119569294154644 C 13.19533157348633 0.04752429574728012 13.36751365661621 0.01150179374963045 13.53962516784668 0.01150179374963045 C 13.71173667907715 0.01150179374963045 13.88377666473389 0.04752429574728012 14.04429149627686 0.119569294154644 L 26.25698089599609 5.614989280700684 C 26.74053192138672 5.780969142913818 27.08864212036133 6.239169120788574 27.08864212036133 6.779769420623779 C 27.08864212036133 7.459859371185303 26.53823089599609 8.010839462280273 25.85757064819336 8.010839462280273 Z" stroke="none" fill="#b2d3d3"/>
        </g>
      </g>
    </g>
  </g>
</svg>
