<svg xmlns="http://www.w3.org/2000/svg" width="25" height="28" viewBox="0 0 25 28">
  <g id="Group_674" data-name="Group 674" transform="translate(-20 -202)">
    <g id="Rectangle_616" data-name="Rectangle 616" transform="translate(27 206)" fill="none" stroke="#b3d4d3" stroke-width="2.4">
      <rect width="18" height="24" rx="2" stroke="none"/>
      <rect x="1.2" y="1.2" width="15.6" height="21.6" rx="0.8" fill="none"/>
    </g>
    <g id="Rectangle_615" data-name="Rectangle 615" transform="translate(20 202)" fill="#064e4a" stroke="#b3d4d3" stroke-width="2.4">
      <rect width="19" height="23" rx="2" stroke="none"/>
      <rect x="1.2" y="1.2" width="16.6" height="20.6" rx="0.8" fill="none"/>
    </g>
    <rect id="Rectangle_617" data-name="Rectangle 617" width="9" height="3" rx="1" transform="translate(24 209)" fill="#b3d4d3"/>
    <path id="Path_557" data-name="Path 557" d="M1,0H6A1,1,0,0,1,7,1V2A1,1,0,0,1,6,3H1A1,1,0,0,1,0,2V1A1,1,0,0,1,1,0Z" transform="translate(24 215)" fill="#b3d4d3"/>
  </g>
</svg>
