<svg xmlns="http://www.w3.org/2000/svg" width="26" height="27.075" viewBox="0 0 26 27.075">
  <g id="Group_678" data-name="Group 678" transform="translate(95 -2383)">
    <g id="Path_572" data-name="Path 572" transform="translate(-95 2382)" fill="none">
      <path d="M4,1H22a4,4,0,0,1,4,4V24a4,4,0,0,1-4,4H4a4,4,0,0,1-4-4V5A4,4,0,0,1,4,1Z" stroke="none"/>
      <path d="M 4 3.399999618530273 C 3.117759704589844 3.399999618530273 2.399999618530273 4.117759704589844 2.399999618530273 5 L 2.399999618530273 24 C 2.399999618530273 24.88224029541016 3.117759704589844 25.60000038146973 4 25.60000038146973 L 22 25.60000038146973 C 22.88224029541016 25.60000038146973 23.60000038146973 24.88224029541016 23.60000038146973 24 L 23.60000038146973 5 C 23.60000038146973 4.117759704589844 22.88224029541016 3.399999618530273 22 3.399999618530273 L 4 3.399999618530273 M 4 1 L 22 1 C 24.20914077758789 1 26 2.790859222412109 26 5 L 26 24 C 26 26.20914077758789 24.20914077758789 28 22 28 L 4 28 C 1.790859222412109 28 0 26.20914077758789 0 24 L 0 5 C 0 2.790859222412109 1.790859222412109 1 4 1 Z" stroke="none" fill="#b3d4d3"/>
    </g>
    <g id="Path_562" data-name="Path 562" transform="translate(-93.342 2382.488)" fill="none">
      <path d="M8.558,1.5V6.108A4.279,4.279,0,0,1,0,6.108V1.5Z" stroke="none"/>
      <path d="M 2.400002002716064 3.900002956390381 L 2.400002002716064 6.108283042907715 C 2.400002002716064 7.14443302154541 3.242971897125244 7.98740291595459 4.279121875762939 7.98740291595459 C 5.315271854400635 7.98740291595459 6.158242225646973 7.14443302154541 6.158242225646973 6.108283042907715 L 6.158242225646973 3.900002956390381 L 2.400002002716064 3.900002956390381 M 1.9073486328125e-06 1.500002861022949 L 8.558241844177246 1.500002861022949 L 8.558241844177246 6.108283042907715 C 8.558241844177246 8.471583366394043 6.642411708831787 10.38740348815918 4.279121875762939 10.38740348815918 C 1.915832042694092 10.38740348815918 1.9073486328125e-06 8.471583366394043 1.9073486328125e-06 6.108283042907715 L 1.9073486328125e-06 1.500002861022949 Z" stroke="none" fill="#b3d4d3"/>
    </g>
    <g id="Path_565" data-name="Path 565" transform="translate(-88.705 2394.921)" fill="none">
      <path d="M13.149,15.154V8.074A6.574,6.574,0,0,0,0,8.074v7.08Z" stroke="none"/>
      <path d="M 10.74872303009033 12.75444316864014 L 10.74872303009033 8.074362754821777 C 10.74872303009033 5.772613048553467 8.876112937927246 3.900002717971802 6.574362754821777 3.900002717971802 C 4.272612571716309 3.900002717971802 2.400002717971802 5.772613048553467 2.400002717971802 8.074362754821777 L 2.400002717971802 12.75444316864014 L 10.74872303009033 12.75444316864014 M 13.14872264862061 15.15444278717041 L 2.754821707640076e-06 15.15444278717041 L 2.754821707640076e-06 8.074362754821777 C 2.754821707640076e-06 4.443442821502686 2.943442821502686 1.500002861022949 6.574362754821777 1.500002861022949 C 10.20528316497803 1.500002861022949 13.14872264862061 4.443442821502686 13.14872264862061 8.074362754821777 L 13.14872264862061 15.15444278717041 Z" stroke="none" fill="#b3d4d3"/>
    </g>
    <g id="Path_563" data-name="Path 563" transform="translate(-86.442 2382.488)" fill="none">
      <path d="M8.558,1.5V6.108A4.279,4.279,0,0,1,0,6.108V1.5Z" stroke="none"/>
      <path d="M 2.400002002716064 3.900002956390381 L 2.400002002716064 6.108283042907715 C 2.400002002716064 7.14443302154541 3.242971897125244 7.98740291595459 4.279121875762939 7.98740291595459 C 5.315271854400635 7.98740291595459 6.158242225646973 7.14443302154541 6.158242225646973 6.108283042907715 L 6.158242225646973 3.900002956390381 L 2.400002002716064 3.900002956390381 M 1.9073486328125e-06 1.500002861022949 L 8.558241844177246 1.500002861022949 L 8.558241844177246 6.108283042907715 C 8.558241844177246 8.471583366394043 6.642411708831787 10.38740348815918 4.279121875762939 10.38740348815918 C 1.915832042694092 10.38740348815918 1.9073486328125e-06 8.471583366394043 1.9073486328125e-06 6.108283042907715 L 1.9073486328125e-06 1.500002861022949 Z" stroke="none" fill="#b3d4d3"/>
    </g>
    <g id="Path_564" data-name="Path 564" transform="translate(-79.542 2382.488)" fill="none">
      <path d="M8.558,1.5V6.108A4.279,4.279,0,0,1,0,6.108V1.5Z" stroke="none"/>
      <path d="M 2.400002002716064 3.900002956390381 L 2.400002002716064 6.108283042907715 C 2.400002002716064 7.14443302154541 3.242971897125244 7.98740291595459 4.279121875762939 7.98740291595459 C 5.315271854400635 7.98740291595459 6.158242225646973 7.14443302154541 6.158242225646973 6.108283042907715 L 6.158242225646973 3.900002956390381 L 2.400002002716064 3.900002956390381 M 1.9073486328125e-06 1.500002861022949 L 8.558241844177246 1.500002861022949 L 8.558241844177246 6.108283042907715 C 8.558241844177246 8.471583366394043 6.642411708831787 10.38740348815918 4.279121875762939 10.38740348815918 C 1.915832042694092 10.38740348815918 1.9073486328125e-06 8.471583366394043 1.9073486328125e-06 6.108283042907715 L 1.9073486328125e-06 1.500002861022949 Z" stroke="none" fill="#b3d4d3"/>
    </g>
  </g>
</svg>
