<svg xmlns="http://www.w3.org/2000/svg" width="22.819" height="22.819" viewBox="0 0 22.819 22.819">
  <g id="user_6_" data-name="user (6)" transform="translate(0.1 0.1)">
    <g id="Group_685" data-name="Group 685" transform="translate(0)">
      <path id="Path_573" data-name="Path 573" d="M19.306,14.622a11.266,11.266,0,0,0-4.3-2.7,6.538,6.538,0,1,0-7.4,0A11.327,11.327,0,0,0,0,22.619H1.767a9.542,9.542,0,0,1,19.084,0h1.767A11.236,11.236,0,0,0,19.306,14.622Zm-8-3.312A4.771,4.771,0,1,1,16.08,6.538,4.777,4.777,0,0,1,11.309,11.309Z" transform="translate(0)" fill="#b3d4d3" stroke="#b3d4d3" stroke-width="0.2"/>
    </g>
  </g>
</svg>
