<svg width="30" height="30" viewBox="0 0 30 30" fill="none" xmlns="http://www.w3.org/2000/svg">
<g clip-path="url(#clip0)">
<rect width="30" height="30" fill="white"/>
<path d="M17.2428 7.33071C19.3541 4.6384 22.8042 5.93212 23.3403 7.00827L20.5261 9.64668C20.5847 9.71509 21.2297 10.3971 23.3403 12.5782C21.6987 14.425 19.3342 13.8477 18.0929 12.9886C15.4405 11 16.7475 7.84809 17.2428 7.33071Z" stroke="#757575" stroke-width="1.2"/>
<path d="M24.8856 7.70668L23.3398 9.72823C23.7066 10.2032 24.5712 11.319 25.0951 11.9818C25.4881 11.9818 25.9335 10.9876 26.0383 9.92707C26.1431 8.86657 25.5929 8.13753 25.3833 7.70668C25.2157 7.36199 24.9817 7.56306 24.8856 7.70668Z" stroke="#757575" stroke-width="1.2"/>
<path d="M14.7423 6.49367L15.2048 6.87583L15.5352 6.476L15.1874 6.09128L14.7423 6.49367ZM14.9975 12.96L15.4728 13.3262L15.7783 12.9298L15.4431 12.5581L14.9975 12.96ZM15.1874 6.09128C14.1542 4.94852 12.6581 4.2291 10.9948 4.2291V5.4291C12.3048 5.4291 13.482 5.99431 14.2972 6.89605L15.1874 6.09128ZM10.9948 4.2291C7.87415 4.2291 5.34434 6.75892 5.34434 9.8796H6.54434C6.54434 7.42166 8.53689 5.4291 10.9948 5.4291V4.2291ZM5.34434 9.8796C5.34434 13.0003 7.87415 15.5301 10.9948 15.5301V14.3301C8.53689 14.3301 6.54434 12.3375 6.54434 9.8796H5.34434ZM10.9948 15.5301C12.8186 15.5301 14.4406 14.6655 15.4728 13.3262L14.5223 12.5937C13.7075 13.6508 12.4306 14.3301 10.9948 14.3301V15.5301ZM15.4431 12.5581C14.4688 11.4778 14.2641 10.2455 14.3819 9.16631C14.5027 8.06066 14.9568 7.17604 15.2048 6.87583L14.2797 6.1115C13.8645 6.61403 13.332 7.727 13.189 9.03602C13.0432 10.3715 13.2976 11.9709 14.552 13.3618L15.4431 12.5581Z" fill="#757575"/>
<path d="M15.7774 18.2807L16.2108 18.6956L16.2313 18.6742L16.2495 18.6509L15.7774 18.2807ZM16.1175 17.8818L16.5572 18.29L17.3408 17.4459L16.2 17.2875L16.1175 17.8818ZM16.1666 25.0963L16.2569 25.6895L17.3995 25.5156L16.5998 24.6812L16.1666 25.0963ZM16.2495 18.6509C16.3501 18.5226 16.4528 18.4025 16.5572 18.29L15.6777 17.4736C15.5503 17.6109 15.426 17.7564 15.3053 17.9104L16.2495 18.6509ZM16.5998 24.6812C15.5026 23.5364 15.2785 22.1826 15.405 21.0099C15.4685 20.4211 15.6204 19.8871 15.7892 19.468C15.9651 19.0312 16.1379 18.7718 16.2108 18.6956L15.344 17.8658C15.1161 18.1038 14.8744 18.5272 14.6761 19.0196C14.4707 19.5295 14.2885 20.1709 14.2119 20.8812C14.0581 22.3067 14.3294 24.0465 15.7334 25.5115L16.5998 24.6812ZM14.0798 25.7708C14.9834 25.7708 15.7115 25.7725 16.2569 25.6895L16.0763 24.5032C15.643 24.5691 15.0258 24.5708 14.0798 24.5708V25.7708ZM6.3928 25.7708H14.0798V24.5708H6.3928V25.7708ZM2.4 21.4926C2.4 23.8089 4.14293 25.7708 6.3928 25.7708V24.5708C4.89508 24.5708 3.6 23.2392 3.6 21.4926H2.4ZM6.3928 17.2145C4.14294 17.2145 2.4 19.1764 2.4 21.4926H3.6C3.6 19.7461 4.89508 18.4145 6.3928 18.4145V17.2145ZM14.0798 17.2145H6.3928V18.4145H14.0798V17.2145ZM16.2 17.2875C15.6639 17.2131 14.9551 17.2145 14.0798 17.2145V18.4145C14.9929 18.4145 15.6012 18.4159 16.035 18.4761L16.2 17.2875Z" fill="#757575"/>
<path d="M26.9999 21.4928L27.4495 21.8902L27.7989 21.4948L27.4515 21.0977L26.9999 21.4928ZM17.7378 21.4928L17.3318 21.051L16.8156 21.5254L17.364 21.9622L17.7378 21.4928ZM22.624 18.8916L22.624 19.4916H22.624V18.8916ZM26.5504 21.0955C25.9273 21.8005 25.5373 22.3582 24.9607 22.8004C24.4351 23.2034 23.7564 23.4939 22.624 23.4939V24.6939C24.0004 24.6939 24.9403 24.3281 25.6909 23.7527C26.3903 23.2164 26.9339 22.4735 27.4495 21.8902L26.5504 21.0955ZM22.624 23.4939C21.4889 23.4939 20.8214 23.2254 20.2332 22.819C19.9229 22.6046 19.6272 22.3464 19.283 22.0371C18.9448 21.7332 18.5635 21.3834 18.1116 21.0235L17.364 21.9622C17.7814 22.2946 18.1319 22.616 18.4809 22.9297C18.8238 23.2379 19.1706 23.5434 19.551 23.8062C20.344 24.3542 21.2504 24.6939 22.624 24.6939V23.4939ZM18.1438 21.9346C20.4133 19.8493 21.8844 19.4916 22.624 19.4916L22.6241 18.2916C21.4764 18.2915 19.7286 18.8488 17.3318 21.051L18.1438 21.9346ZM22.624 19.4916C23.738 19.4916 24.3896 19.7535 24.904 20.138C25.4683 20.5598 25.8789 21.1228 26.5484 21.8879L27.4515 21.0977C26.8731 20.4367 26.3213 19.6991 25.6224 19.1768C24.8736 18.6172 23.9612 18.2916 22.624 18.2916V19.4916Z" fill="#757575"/>
<circle r="1.70464" transform="matrix(-1 0 0 1 22.5483 21.4922)" stroke="#757575"/>
</g>
<defs>
<clipPath id="clip0">
<rect width="30" height="30" fill="white"/>
</clipPath>
</defs>
</svg>
